<?xml version="1.0" encoding="UTF-8"?>
<!DOCTYPE svg>
<svg viewBox="0 0 100 99" xmlns="http://www.w3.org/2000/svg">
<polygon points="15,4 112,1 81,12" fill="rgba(238,221,238,0.666667)"/>
<polygon points="17,37 92,7 79,49" fill="rgba(71,226,217,0.443137)"/>
<polygon points="67,13 38,43 97,71" fill="rgba(250,88,163,0.745098)"/>
<polygon points="95,36 101,80 53,16" fill="rgba(202,228,129,0.003922)"/>
<polygon points="33,141 37,74 106,54" fill="rgba(255,204,83,0.301961)"/>
<polygon points="7,100 79,102 52,43" fill="rgba(162,93,249,0.145098)"/>
<polygon points="127,9 2,75 28,205" fill="rgba(237,195,240,0.011765)"/>
<polygon points="95,60 62,36 23,89" fill="rgba(52,117,41,0.698039)"/>
<polygon points="6,122 13,1 0,77" fill="rgba(247,242,250,1.000000)"/>
<polygon points="38,26 8,107 102,42" fill="rgba(254,233,237,0.929412)"/>
<polygon points="102,88 0,87 13,3" fill="rgba(251,246,253,0.956863)"/>
<polygon points="0,12 3,103 81,78" fill="rgba(251,244,57,0.933333)"/>
<polygon points="93,26 59,13 4,101" fill="rgba(252,168,247,0.078431)"/>
<polygon points="41,85 34,33 98,26" fill="rgba(214,211,162,0.439216)"/>
<polygon points="69,75 81,81 57,75" fill="rgba(100,148,28,0.003922)"/>
<polygon points="111,83 36,52 23,83" fill="rgba(125,191,9,0.705882)"/>
<polygon points="43,62 26,17 107,17" fill="rgba(165,37,6,0.003922)"/>
<polygon points="55,77 69,42 96,62" fill="rgba(14,21,35,0.345098)"/>
<polygon points="74,15 52,106 39,79" fill="rgba(36,15,164,0.600000)"/>
<polygon points="1,71 83,0 54,98" fill="rgba(250,229,206,0.980392)"/>
<polygon points="11,22 0,81 56,156" fill="rgba(255,238,253,0.960784)"/>
<polygon points="51,68 88,74 87,47" fill="rgba(79,152,174,0.709804)"/>
<polygon points="79,107 94,73 25,51" fill="rgba(18,13,75,0.003922)"/>
<polygon points="60,101 37,16 113,87" fill="rgba(167,146,183,0.498039)"/>
<polygon points="25,30 55,54 4,103" fill="rgba(239,202,219,0.458824)"/>
<polygon points="26,23 100,71 60,18" fill="rgba(171,84,192,0.129412)"/>
<polygon points="20,46 90,65 47,92" fill="rgba(152,106,208,0.360784)"/>
<polygon points="0,86 3,120 91,79" fill="rgba(230,249,247,0.952941)"/>
<polygon points="5,4 1,47 47,96" fill="rgba(230,253,182,0.823529)"/>
<polygon points="11,28 4,43 11,101" fill="rgba(194,216,252,0.415686)"/>
<polygon points="60,37 88,22 71,72" fill="rgba(173,155,7,0.294118)"/>
<polygon points="78,24 36,69 77,17" fill="rgba(249,194,103,0.003922)"/>
<polygon points="97,83 19,33 97,91" fill="rgba(206,114,221,0.000000)"/>
<polygon points="42,88 35,59 99,0" fill="rgba(182,142,88,0.827451)"/>
<polygon points="47,16 66,16 76,80" fill="rgba(45,13,116,0.003922)"/>
<polygon points="49,78 36,35 5,27" fill="rgba(74,223,192,0.407843)"/>
<polygon points="100,16 90,102 93,32" fill="rgba(168,222,19,0.964706)"/>
<polygon points="78,2 69,109 107,20" fill="rgba(179,152,182,0.482353)"/>
<polygon points="86,48 83,8 71,31" fill="rgba(25,235,165,0.000000)"/>
<polygon points="128,86 4,65 40,58" fill="rgba(251,3,35,0.094118)"/>
<polygon points="49,39 86,90 68,18" fill="rgba(46,204,20,0.003922)"/>
<polygon points="7,3 0,1 30,126" fill="rgba(232,226,230,0.988235)"/>
<polygon points="102,2 93,89 59,83" fill="rgba(255,221,195,0.937255)"/>
<polygon points="101,1 10,1 16,92" fill="rgba(255,242,238,0.109804)"/>
<polygon points="88,56 48,55 35,49" fill="rgba(231,7,131,0.003922)"/>
<polygon points="59,5 84,105 46,94" fill="rgba(217,53,27,0.929412)"/>
<polygon points="48,26 87,80 102,105" fill="rgba(140,80,131,0.003922)"/>
<polygon points="20,100 91,57 11,37" fill="rgba(250,234,253,1.000000)"/>
<polygon points="32,38 27,99 21,11" fill="rgba(246,93,10,0.396078)"/>
<polygon points="26,9 78,1 21,98" fill="rgba(234,160,229,0.921569)"/>
<polygon points="93,52 14,73 44,11" fill="rgba(177,173,48,0.600000)"/>
<polygon points="108,41 75,15 40,77" fill="rgba(57,160,232,0.647059)"/>
<polygon points="0,28 45,52 1,121" fill="rgba(241,242,215,0.980392)"/>
<polygon points="103,8 58,59 88,55" fill="rgba(95,78,237,0.003922)"/>
<polygon points="100,14 16,28 85,77" fill="rgba(144,93,222,0.972549)"/>
<polygon points="84,80 30,102 12,97" fill="rgba(229,187,244,0.984314)"/>
<polygon points="10,71 104,93 98,83" fill="rgba(224,191,0,0.749020)"/>
<polygon points="43,93 80,98 21,72" fill="rgba(151,24,8,0.996078)"/>
<polygon points="59,103 82,81 90,111" fill="rgba(209,232,217,0.956863)"/>
<polygon points="1,47 35,101 45,24" fill="rgba(74,5,100,0.980392)"/>
<polygon points="98,33 128,15 40,91" fill="rgba(130,252,244,0.003922)"/>
<polygon points="145,2 95,80 21,1" fill="rgba(217,251,251,0.968627)"/>
<polygon points="0,44 76,50 3,8" fill="rgba(255,238,243,0.964706)"/>
<polygon points="66,3 14,56 72,32" fill="rgba(215,26,183,0.003922)"/>
<polygon points="78,94 92,99 35,88" fill="rgba(83,149,65,0.960784)"/>
<polygon points="109,42 59,73 70,139" fill="rgba(186,189,38,0.003922)"/>
<polygon points="19,46 57,45 69,6" fill="rgba(51,89,209,0.607843)"/>
<polygon points="100,26 34,81 41,6" fill="rgba(187,199,110,0.003922)"/>
<polygon points="35,88 12,30 91,16" fill="rgba(114,43,143,0.023529)"/>
<polygon points="1,39 51,97 83,43" fill="rgba(221,239,237,0.996078)"/>
<polygon points="0,66 7,177 79,63" fill="rgba(255,247,252,0.960784)"/>
<polygon points="88,65 83,50 41,8" fill="rgba(136,194,151,0.003922)"/>
<polygon points="92,18 37,31 1,100" fill="rgba(233,198,242,0.803922)"/>
<polygon points="15,89 26,76 48,37" fill="rgba(27,100,12,0.376471)"/>
<polygon points="92,98 32,60 79,35" fill="rgba(212,166,29,0.003922)"/>
<polygon points="86,98 53,64 38,54" fill="rgba(105,87,239,0.003922)"/>
<polygon points="78,66 22,20 128,26" fill="rgba(194,183,82,0.380392)"/>
<polygon points="54,49 23,61 92,54" fill="rgba(109,97,160,0.984314)"/>
<polygon points="30,85 106,33 90,29" fill="rgba(254,210,243,0.176471)"/>
<polygon points="35,32 57,50 28,67" fill="rgba(87,233,100,0.003922)"/>
<polygon points="36,19 4,1 115,53" fill="rgba(121,153,40,0.003922)"/>
<polygon points="28,57 45,26 111,89" fill="rgba(168,238,171,0.666667)"/>
<polygon points="9,59 39,28 44,32" fill="rgba(126,108,84,0.741176)"/>
<polygon points="67,77 35,99 62,24" fill="rgba(222,104,165,0.121569)"/>
<polygon points="83,91 112,120 99,13" fill="rgba(84,233,241,0.811765)"/>
<polygon points="89,86 80,53 73,41" fill="rgba(199,184,247,0.933333)"/>
<polygon points="68,17 18,32 58,78" fill="rgba(188,52,157,0.968627)"/>
<polygon points="26,48 34,34 61,26" fill="rgba(67,172,253,0.690196)"/>
<polygon points="89,28 44,77 93,77" fill="rgba(231,219,252,0.396078)"/>
<polygon points="49,49 28,122 29,60" fill="rgba(239,192,119,0.003922)"/>
<polygon points="90,75 63,48 81,43" fill="rgba(2,254,227,0.933333)"/>
<polygon points="83,28 29,77 110,108" fill="rgba(179,243,170,0.854902)"/>
<polygon points="4,45 53,56 91,65" fill="rgba(218,177,252,0.094118)"/>
<polygon points="91,85 99,58 82,34" fill="rgba(231,200,94,0.603922)"/>
<polygon points="71,103 41,106 89,1" fill="rgba(254,53,81,0.000000)"/>
<polygon points="51,114 86,72 50,47" fill="rgba(190,125,236,0.937255)"/>
<polygon points="15,73 9,110 74,36" fill="rgba(72,253,253,0.780392)"/>
<polygon points="149,22 0,2 4,215" fill="rgba(251,244,255,0.976471)"/>
<polygon points="29,74 67,59 22,4" fill="rgba(248,251,122,0.956863)"/>
<polygon points="1,22 27,35 19,87" fill="rgba(205,243,244,0.839216)"/>
<polygon points="93,108 35,82 46,69" fill="rgba(136,53,9,0.270588)"/>
<polygon points="83,68 46,80 80,57" fill="rgba(59,149,23,0.019608)"/>
<polygon points="82,94 32,88 89,66" fill="rgba(64,49,116,0.890196)"/>
<polygon points="57,91 3,45 32,69" fill="rgba(246,120,102,0.490196)"/>
<polygon points="99,72 65,51 92,86" fill="rgba(116,244,181,0.392157)"/>
<polygon points="112,57 12,8 72,61" fill="rgba(97,227,52,0.003922)"/>
<polygon points="70,109 13,59 96,75" fill="rgba(240,227,0,0.309804)"/>
<polygon points="1,3 86,78 15,179" fill="rgba(26,26,248,0.972549)"/>
<polygon points="92,8 98,14 80,102" fill="rgba(215,33,125,0.474510)"/>
<polygon points="37,118 5,40 1,96" fill="rgba(228,250,165,0.827451)"/>
<polygon points="55,39 56,94 77,50" fill="rgba(177,82,46,0.196078)"/>
<polygon points="24,82 33,71 86,103" fill="rgba(179,255,103,0.003922)"/>
<polygon points="109,43 73,38 66,71" fill="rgba(113,98,198,0.329412)"/>
<polygon points="0,86 53,16 184,61" fill="rgba(249,240,245,0.858824)"/>
<polygon points="2,1 5,46 102,24" fill="rgba(251,231,227,0.964706)"/>
<polygon points="85,76 7,23 78,95" fill="rgba(183,1,26,0.878431)"/>
<polygon points="0,0 123,17 39,50" fill="rgba(254,243,250,0.964706)"/>
<polygon points="16,7 92,63 66,15" fill="rgba(212,86,119,0.000000)"/>
<polygon points="16,34 53,21 81,59" fill="rgba(223,152,38,0.862745)"/>
<polygon points="3,14 4,10 55,38" fill="rgba(233,235,205,0.952941)"/>
<polygon points="7,87 57,38 80,80" fill="rgba(91,224,170,0.003922)"/>
<polygon points="31,23 32,67 9,89" fill="rgba(206,169,5,0.098039)"/>
<polygon points="19,68 2,9 23,31" fill="rgba(205,253,255,0.894118)"/>
<polygon points="1,0 103,0 17,72" fill="rgba(255,254,247,1.000000)"/>
<polygon points="90,41 67,7 14,37" fill="rgba(74,101,237,0.709804)"/>
<polygon points="68,19 57,93 33,55" fill="rgba(139,232,180,0.003922)"/>
<polygon points="41,2 19,79 101,81" fill="rgba(0,4,28,0.956863)"/>
<polygon points="22,124 4,88 43,9" fill="rgba(94,238,238,0.984314)"/>
<polygon points="94,45 17,11 87,6" fill="rgba(118,0,26,0.882353)"/>
<polygon points="69,38 39,86 65,86" fill="rgba(52,7,126,0.913725)"/>
<polygon points="85,96 22,42 51,75" fill="rgba(214,44,74,0.956863)"/>
<polygon points="39,3 105,74 12,48" fill="rgba(4,5,15,0.901961)"/>
<polygon points="66,52 39,110 57,51" fill="rgba(228,229,6,0.866667)"/>
<polygon points="19,146 72,1 0,82" fill="rgba(255,245,252,0.980392)"/>
<polygon points="41,91 120,4 123,59" fill="rgba(227,194,249,0.713725)"/>
<polygon points="46,82 18,66 28,5" fill="rgba(137,27,88,0.635294)"/>
<polygon points="52,27 25,38 24,89" fill="rgba(214,18,59,0.003922)"/>
<polygon points="63,5 28,6 14,125" fill="rgba(129,218,225,1.000000)"/>
<polygon points="17,58 104,91 90,59" fill="rgba(17,139,216,0.003922)"/>
<polygon points="67,122 1,18 63,37" fill="rgba(240,196,235,0.988235)"/>
<polygon points="72,58 110,32 30,7" fill="rgba(9,33,108,0.913725)"/>
<polygon points="30,116 18,43 86,90" fill="rgba(207,160,235,0.200000)"/>
<polygon points="45,60 93,30 71,15" fill="rgba(104,131,93,0.545098)"/>
<polygon points="75,73 30,23 63,78" fill="rgba(155,67,13,0.498039)"/>
<polygon points="105,14 92,96 72,87" fill="rgba(230,91,8,0.800000)"/>
<polygon points="35,99 57,79 57,15" fill="rgba(238,245,250,0.600000)"/>
<polygon points="35,37 80,111 2,87" fill="rgba(213,166,140,0.976471)"/>
<polygon points="25,100 7,14 46,4" fill="rgba(6,85,153,0.709804)"/>
<polygon points="38,36 90,42 96,42" fill="rgba(173,206,120,0.003922)"/>
<polygon points="50,85 32,11 50,41" fill="rgba(11,34,117,0.239216)"/>
<polygon points="89,30 92,33 15,103" fill="rgba(231,249,195,0.039216)"/>
<polygon points="2,84 1,2 74,61" fill="rgba(251,238,251,1.000000)"/>
<polygon points="65,26 31,108 37,123" fill="rgba(248,244,216,0.400000)"/>
<polygon points="89,28 49,48 84,75" fill="rgba(12,12,0,0.639216)"/>
<polygon points="64,98 8,56 71,63" fill="rgba(152,225,139,0.152941)"/>
<polygon points="113,34 55,44 80,38" fill="rgba(222,201,197,0.098039)"/>
<polygon points="100,14 17,18 31,83" fill="rgba(58,41,63,0.352941)"/>
<polygon points="112,69 24,100 57,105" fill="rgba(222,207,58,0.556863)"/>
<polygon points="27,53 64,53 69,69" fill="rgba(169,65,103,0.003922)"/>
<polygon points="98,8 43,62 84,35" fill="rgba(251,230,228,0.901961)"/>
<polygon points="139,22 46,2 11,94" fill="rgba(18,36,91,0.909804)"/>
<polygon points="0,21 2,97 87,10" fill="rgba(251,254,255,0.976471)"/>
<polygon points="56,98 77,96 36,98" fill="rgba(132,215,49,0.392157)"/>
<polygon points="44,82 37,49 88,84" fill="rgba(58,31,168,0.003922)"/>
<polygon points="68,0 18,55 34,52" fill="rgba(247,148,180,0.800000)"/>
<polygon points="113,37 84,4 72,68" fill="rgba(254,244,243,0.317647)"/>
<polygon points="18,32 51,71 0,89" fill="rgba(252,251,249,0.925490)"/>
<polygon points="116,23 34,54 107,98" fill="rgba(192,137,210,0.741176)"/>
<polygon points="77,46 74,83 27,21" fill="rgba(7,105,255,0.003922)"/>
<polygon points="22,96 81,30 11,12" fill="rgba(202,177,3,0.839216)"/>
<polygon points="36,58 47,6 109,73" fill="rgba(217,131,146,0.270588)"/>
<polygon points="66,72 23,120 74,52" fill="rgba(234,225,90,0.996078)"/>
<polygon points="55,47 68,31 43,10" fill="rgba(79,134,154,0.623529)"/>
<polygon points="98,83 3,32 45,6" fill="rgba(123,251,252,0.964706)"/>
<polygon points="100,0 63,107 15,13" fill="rgba(240,241,249,1.000000)"/>
<polygon points="58,3 125,67 36,90" fill="rgba(25,6,87,0.901961)"/>
<polygon points="65,23 17,86 82,52" fill="rgba(120,63,171,0.003922)"/>
<polygon points="33,108 70,48 47,135" fill="rgba(67,62,13,0.843137)"/>
<polygon points="59,70 47,5 90,17" fill="rgba(214,228,196,0.662745)"/>
<polygon points="106,20 42,78 54,24" fill="rgba(214,203,9,0.050980)"/>
<polygon points="18,26 47,54 109,64" fill="rgba(139,23,87,0.262745)"/>
<polygon points="76,1 99,41 81,29" fill="rgba(75,174,57,0.682353)"/>
<polygon points="83,104 91,20 49,91" fill="rgba(127,234,255,0.996078)"/>
<polygon points="62,25 31,16 84,1" fill="rgba(226,152,191,0.701961)"/>
<polygon points="90,63 61,95 39,77" fill="rgba(12,85,74,0.898039)"/>
<polygon points="80,64 52,5 20,99" fill="rgba(232,234,254,0.894118)"/>
<polygon points="15,141 6,55 118,18" fill="rgba(253,253,253,0.945098)"/>
<polygon points="98,56 4,88 79,102" fill="rgba(219,136,167,0.560784)"/>
<polygon points="15,132 3,8 130,14" fill="rgba(248,244,255,0.470588)"/>
<polygon points="83,70 59,98 93,119" fill="rgba(251,239,229,0.913725)"/>
<polygon points="88,28 19,30 64,101" fill="rgba(5,181,63,0.003922)"/>
<polygon points="48,12 11,54 36,24" fill="rgba(240,140,68,0.756863)"/>
<polygon points="42,99 92,64 31,87" fill="rgba(85,95,186,0.164706)"/>
<polygon points="99,85 46,98 4,84" fill="rgba(20,150,246,0.466667)"/>
<polygon points="110,63 55,1 74,43" fill="rgba(25,27,246,0.894118)"/>
<polygon points="46,9 15,92 81,62" fill="rgba(114,186,159,0.145098)"/>
<polygon points="36,40 119,26 33,9" fill="rgba(234,205,218,0.901961)"/>
<polygon points="74,78 59,63 47,12" fill="rgba(95,187,1,0.898039)"/>
<polygon points="66,37 1,40 14,88" fill="rgba(174,236,51,0.866667)"/>
<polygon points="0,63 90,62 6,86" fill="rgba(51,208,206,0.874510)"/>
<polygon points="76,99 64,94 38,26" fill="rgba(2,48,242,0.682353)"/>
<polygon points="101,77 69,30 50,31" fill="rgba(139,168,207,0.521569)"/>
<polygon points="30,53 94,11 52,102" fill="rgba(160,64,15,0.003922)"/>
<polygon points="11,45 26,95 60,95" fill="rgba(24,33,40,0.270588)"/>
<polygon points="85,38 33,104 69,53" fill="rgba(31,3,42,0.917647)"/>
<polygon points="75,59 28,23 10,60" fill="rgba(224,172,255,0.113725)"/>
<polygon points="42,86 117,46 33,6" fill="rgba(48,227,170,0.847059)"/>
<polygon points="35,4 73,4 111,72" fill="rgba(2,148,194,0.513725)"/>
<polygon points="50,85 15,79 114,102" fill="rgba(216,248,155,0.792157)"/>
<polygon points="83,19 36,64 70,66" fill="rgba(164,143,109,0.003922)"/>
<polygon points="41,27 75,16 74,0" fill="rgba(251,46,102,0.976471)"/>
<polygon points="92,118 38,74 104,116" fill="rgba(35,247,249,0.274510)"/>
<polygon points="49,14 0,40 3,220" fill="rgba(253,253,253,0.996078)"/>
<polygon points="54,59 94,106 6,26" fill="rgba(32,224,76,0.003922)"/>
<polygon points="23,21 50,81 5,115" fill="rgba(254,254,255,0.607843)"/>
<polygon points="92,60 83,60 33,97" fill="rgba(132,68,60,0.996078)"/>
<polygon points="102,95 33,2 30,52" fill="rgba(41,16,211,0.482353)"/>
<polygon points="101,0 94,124 40,10" fill="rgba(146,245,249,0.858824)"/>
<polygon points="32,5 44,10 53,125" fill="rgba(89,12,99,0.003922)"/>
<polygon points="36,0 78,21 131,77" fill="rgba(157,232,244,0.894118)"/>
<polygon points="67,29 43,98 126,62" fill="rgba(232,19,118,0.996078)"/>
<polygon points="103,76 3,19 0,99" fill="rgba(254,254,255,1.000000)"/>
<polygon points="74,1 5,70 64,89" fill="rgba(198,150,190,0.482353)"/>
<polygon points="145,92 76,70 21,90" fill="rgba(11,102,78,0.968627)"/>
<polygon points="62,82 132,43 11,16" fill="rgba(255,205,19,0.913725)"/>
<polygon points="99,71 128,34 16,87" fill="rgba(148,8,17,0.525490)"/>
<polygon points="95,52 62,5 116,28" fill="rgba(13,27,96,0.984314)"/>
<polygon points="40,12 26,35 92,82" fill="rgba(3,2,54,0.964706)"/>
<polygon points="128,94 19,62 37,14" fill="rgba(163,57,10,0.960784)"/>
<polygon points="74,90 33,14 22,70" fill="rgba(229,237,187,0.874510)"/>
<polygon points="56,84 59,94 105,42" fill="rgba(253,250,15,0.792157)"/>
<polygon points="65,55 1,54 11,19" fill="rgba(226,186,138,0.945098)"/>
<polygon points="29,92 56,31 101,67" fill="rgba(185,130,133,0.745098)"/>
<polygon points="97,69 57,53 91,51" fill="rgba(245,94,188,0.427451)"/>
<polygon points="30,92 31,64 103,93" fill="rgba(95,9,0,0.568627)"/>
<polygon points="79,160 66,68 111,67" fill="rgba(235,245,225,0.988235)"/>
<polygon points="35,93 65,92 5,31" fill="rgba(203,57,19,0.482353)"/>
<polygon points="17,86 38,57 79,63" fill="rgba(58,9,84,0.792157)"/>
<polygon points="100,16 72,29 94,87" fill="rgba(227,177,225,0.772549)"/>
<polygon points="83,21 59,95 35,103" fill="rgba(176,91,0,0.839216)"/>
<polygon points="4,31 76,15 79,86" fill="rgba(218,120,3,0.682353)"/>
<polygon points="1,45 67,62 19,34" fill="rgba(211,141,79,0.662745)"/>
<polygon points="91,62 58,98 56,34" fill="rgba(168,254,35,0.372549)"/>
<polygon points="54,15 92,77 130,12" fill="rgba(28,148,190,0.898039)"/>
<polygon points="109,109 62,29 115,20" fill="rgba(47,218,249,0.807843)"/>
<polygon points="17,13 40,99 80,30" fill="rgba(10,6,10,1.000000)"/>
<polygon points="44,92 50,80 93,100" fill="rgba(240,20,10,0.560784)"/>
<polygon points="112,87 109,1 8,31" fill="rgba(252,250,249,0.992157)"/>
<polygon points="15,68 109,110 30,54" fill="rgba(248,17,236,0.639216)"/>
<polygon points="99,72 99,48 22,92" fill="rgba(31,7,35,0.215686)"/>
<polygon points="102,50 6,63 22,88" fill="rgba(15,48,0,0.913725)"/>
<polygon points="85,29 66,94 89,37" fill="rgba(133,169,200,0.556863)"/>
<polygon points="66,56 88,53 36,5" fill="rgba(17,72,206,0.968627)"/>
<polygon points="63,20 88,93 68,94" fill="rgba(174,195,7,0.003922)"/>
<polygon points="7,20 77,82 10,80" fill="rgba(201,75,46,0.415686)"/>
<polygon points="99,39 111,109 90,21" fill="rgba(85,137,82,0.631373)"/>
<polygon points="77,146 61,89 92,10" fill="rgba(169,209,40,0.243137)"/>
<polygon points="15,3 7,93 97,78" fill="rgba(255,255,252,0.898039)"/>
<polygon points="35,101 89,32 87,58" fill="rgba(168,248,128,0.627451)"/>
<polygon points="21,91 125,123 82,94" fill="rgba(6,239,228,0.058824)"/>
<polygon points="62,48 24,91 48,46" fill="rgba(41,181,178,0.992157)"/>
<polygon points="5,29 126,67 100,87" fill="rgba(173,106,24,0.211765)"/>
<polygon points="114,85 76,40 87,15" fill="rgba(234,207,134,0.635294)"/>
<polygon points="94,60 35,47 88,20" fill="rgba(197,133,33,0.937255)"/>
<polygon points="42,99 37,94 68,47" fill="rgba(176,211,190,0.827451)"/>
<polygon points="91,31 81,10 62,12" fill="rgba(223,189,23,0.611765)"/>
<polygon points="85,10 76,14 77,98" fill="rgba(118,4,21,0.003922)"/>
<polygon points="75,48 79,54 58,41" fill="rgba(94,27,254,0.823529)"/>
<polygon points="89,115 65,5 99,67" fill="rgba(235,216,240,0.254902)"/>
<polygon points="99,64 10,77 63,90" fill="rgba(204,122,18,0.654902)"/>
<polygon points="72,8 20,75 73,92" fill="rgba(86,112,24,0.050980)"/>
<polygon points="25,28 8,16 51,18" fill="rgba(175,48,13,0.435294)"/>
<polygon points="83,50 92,80 157,48" fill="rgba(239,255,255,0.964706)"/>
<polygon points="112,106 21,11 15,30" fill="rgba(22,92,157,0.929412)"/>
<polygon points="144,78 22,90 61,76" fill="rgba(128,113,129,0.352941)"/>
<polygon points="6,79 85,97 54,111" fill="rgba(20,14,23,0.023529)"/>
<polygon points="20,87 44,78 9,64" fill="rgba(171,46,46,0.952941)"/>
<polygon points="40,84 40,96 112,56" fill="rgba(123,243,186,0.027451)"/>
<polygon points="56,61 121,143 101,21" fill="rgba(254,245,255,0.674510)"/>
<polygon points="84,170 107,96 35,93" fill="rgba(166,198,218,0.509804)"/>
<polygon points="97,17 32,106 4,21" fill="rgba(23,76,13,0.031373)"/>
<polygon points="29,32 19,51 31,29" fill="rgba(82,203,94,0.854902)"/>
<polygon points="71,76 43,26 16,18" fill="rgba(24,0,19,0.882353)"/>
<polygon points="8,72 73,35 8,17" fill="rgba(216,125,17,0.909804)"/>
<polygon points="87,64 69,13 89,116" fill="rgba(25,10,4,0.976471)"/>
<polygon points="96,33 98,90 45,42" fill="rgba(64,167,249,0.913725)"/>
<polygon points="105,104 46,26 76,8" fill="rgba(145,34,204,0.003922)"/>
<polygon points="96,18 27,97 27,29" fill="rgba(222,51,3,0.145098)"/>
<polygon points="9,12 128,92 74,97" fill="rgba(232,101,17,0.203922)"/>
<polygon points="85,108 73,4 88,38" fill="rgba(58,23,11,0.270588)"/>
<polygon points="89,16 9,75 20,80" fill="rgba(159,30,2,0.796078)"/>
<polygon points="61,90 31,8 14,17" fill="rgba(4,74,136,0.690196)"/>
<polygon points="43,37 74,11 90,53" fill="rgba(173,158,5,0.780392)"/>
<polygon points="44,26 78,90 101,41" fill="rgba(6,60,52,0.623529)"/>
<polygon points="35,49 100,96 44,15" fill="rgba(177,226,232,0.603922)"/>
<polygon points="56,87 84,56 3,47" fill="rgba(230,55,59,0.627451)"/>
<polygon points="26,8 20,19 75,68" fill="rgba(4,120,202,0.701961)"/>
<polygon points="90,67 47,56 24,91" fill="rgba(137,17,29,0.400000)"/>
<polygon points="41,77 127,21 150,114" fill="rgba(250,253,255,0.784314)"/>
<polygon points="119,110 68,105 69,90" fill="rgba(255,248,249,0.898039)"/>
<polygon points="66,29 22,72 97,24" fill="rgba(249,58,83,0.003922)"/>
<polygon points="97,46 19,41 80,12" fill="rgba(242,209,0,0.988235)"/>
<polygon points="85,91 6,44 2,54" fill="rgba(208,43,14,0.933333)"/>
<polygon points="20,30 50,15 64,72" fill="rgba(16,185,239,0.560784)"/>
<polygon points="7,81 2,44 31,14" fill="rgba(17,110,32,0.070588)"/>
<polygon points="45,102 64,94 75,63" fill="rgba(35,89,1,0.078431)"/>
<polygon points="8,73 16,54 93,86" fill="rgba(49,25,2,0.996078)"/>
<polygon points="91,9 99,5 60,33" fill="rgba(25,254,133,0.054902)"/>
<polygon points="18,33 91,30 74,42" fill="rgba(146,0,42,0.556863)"/>
<polygon points="45,32 89,78 7,68" fill="rgba(219,231,62,0.988235)"/>
<polygon points="84,74 98,39 98,59" fill="rgba(166,162,133,0.486275)"/>
<polygon points="10,29 47,0 79,48" fill="rgba(208,180,222,0.317647)"/>
<polygon points="60,41 97,11 81,7" fill="rgba(246,166,237,0.172549)"/>
<polygon points="35,6 125,89 64,82" fill="rgba(75,21,86,0.003922)"/>
<polygon points="78,78 16,70 97,44" fill="rgba(57,5,213,0.560784)"/>
<polygon points="8,73 3,39 127,97" fill="rgba(195,98,34,0.690196)"/>
<polygon points="59,35 107,44 83,74" fill="rgba(2,118,143,0.003922)"/>
<polygon points="53,68 35,93 94,45" fill="rgba(9,126,210,0.337255)"/>
<polygon points="84,23 66,113 67,142" fill="rgba(5,214,169,0.003922)"/>
<polygon points="43,97 4,64 79,20" fill="rgba(92,11,31,0.800000)"/>
<polygon points="46,2 4,42 23,69" fill="rgba(89,66,23,0.274510)"/>
<polygon points="98,48 88,94 60,83" fill="rgba(93,27,0,0.419608)"/>
<polygon points="61,4 90,107 91,45" fill="rgba(6,0,82,0.631373)"/>
<polygon points="27,20 97,87 18,23" fill="rgba(207,255,33,0.972549)"/>
<polygon points="90,66 47,22 56,88" fill="rgba(120,255,226,0.631373)"/>
<polygon points="81,28 21,28 73,38" fill="rgba(239,71,14,0.992157)"/>
<polygon points="26,75 111,99 60,13" fill="rgba(163,233,238,0.721569)"/>
<polygon points="52,8 107,50 13,80" fill="rgba(3,40,191,0.066667)"/>
<polygon points="29,15 14,37 50,3" fill="rgba(178,126,242,0.360784)"/>
<polygon points="36,78 81,16 78,83" fill="rgba(240,244,32,0.745098)"/>
<polygon points="28,46 99,105 94,28" fill="rgba(164,86,16,0.286275)"/>
<polygon points="98,93 48,40 14,78" fill="rgba(103,12,1,0.937255)"/>
<polygon points="58,59 77,20 97,89" fill="rgba(30,10,54,0.937255)"/>
<polygon points="77,70 81,29 14,78" fill="rgba(30,28,203,0.823529)"/>
<polygon points="81,97 18,56 79,24" fill="rgba(110,180,247,0.827451)"/>
<polygon points="50,50 20,17 28,53" fill="rgba(255,244,187,0.705882)"/>
<polygon points="94,49 99,88 74,17" fill="rgba(35,98,166,0.215686)"/>
<polygon points="12,70 70,92 19,39" fill="rgba(240,175,1,1.000000)"/>
<polygon points="29,25 16,26 32,84" fill="rgba(47,53,20,0.956863)"/>
<polygon points="40,5 11,25 98,86" fill="rgba(44,232,243,0.498039)"/>
<polygon points="79,75 61,101 154,47" fill="rgba(244,245,238,0.705882)"/>
<polygon points="44,95 49,28 29,33" fill="rgba(226,55,1,0.996078)"/>
<polygon points="34,26 9,20 47,107" fill="rgba(229,123,31,0.807843)"/>
<polygon points="19,87 7,73 100,47" fill="rgba(34,42,39,0.227451)"/>
<polygon points="6,56 86,88 69,93" fill="rgba(6,59,8,0.313725)"/>
<polygon points="23,88 97,23 36,83" fill="rgba(253,72,8,0.960784)"/>
<polygon points="67,8 40,78 58,26" fill="rgba(229,248,195,0.917647)"/>
<polygon points="60,83 42,84 47,31" fill="rgba(54,5,4,0.878431)"/>
<polygon points="94,21 67,87 27,81" fill="rgba(218,120,1,0.223529)"/>
<polygon points="23,69 41,56 53,24" fill="rgba(5,10,15,0.486275)"/>
<polygon points="67,113 85,66 164,73" fill="rgba(242,251,166,0.596078)"/>
<polygon points="95,43 53,89 4,56" fill="rgba(249,153,9,0.968627)"/>
<polygon points="32,35 73,85 2,5" fill="rgba(216,180,92,0.756863)"/>
<polygon points="54,95 45,99 18,49" fill="rgba(118,11,25,0.372549)"/>
<polygon points="61,61 96,66 90,24" fill="rgba(251,174,13,0.607843)"/>
<polygon points="93,85 46,89 67,85" fill="rgba(234,135,7,0.486275)"/>
<polygon points="97,65 94,57 19,45" fill="rgba(40,13,155,0.898039)"/>
<polygon points="84,15 11,15 13,51" fill="rgba(234,7,13,0.058824)"/>
<polygon points="24,15 92,92 48,70" fill="rgba(150,6,32,0.207843)"/>
<polygon points="22,88 90,83 37,48" fill="rgba(89,1,2,0.905882)"/>
<polygon points="91,53 46,93 45,87" fill="rgba(211,10,12,0.643137)"/>
<polygon points="57,83 99,86 38,64" fill="rgba(254,254,242,0.964706)"/>
<polygon points="24,31 33,15 75,75" fill="rgba(250,86,5,0.113725)"/>
<polygon points="76,27 56,31 96,78" fill="rgba(144,251,245,0.882353)"/>
<polygon points="9,68 53,59 42,90" fill="rgba(253,219,133,0.878431)"/>
<polygon points="95,77 64,39 28,91" fill="rgba(114,24,13,0.686275)"/>
<polygon points="35,5 60,60 57,6" fill="rgba(159,199,245,0.172549)"/>
<polygon points="38,97 85,32 69,33" fill="rgba(5,66,148,0.439216)"/>
<polygon points="50,19 57,57 86,54" fill="rgba(9,18,9,0.984314)"/>
<polygon points="26,81 72,94 64,87" fill="rgba(239,177,8,0.341176)"/>
<polygon points="94,33 85,80 48,47" fill="rgba(250,255,34,0.949020)"/>
<polygon points="11,21 47,59 3,5" fill="rgba(254,231,218,0.168627)"/>
<polygon points="12,57 1,32 66,120" fill="rgba(202,97,65,0.168627)"/>
<polygon points="73,48 62,7 47,29" fill="rgba(100,199,235,0.901961)"/>
<polygon points="78,23 70,121 112,122" fill="rgba(254,255,242,0.529412)"/>
<polygon points="29,96 128,99 60,154" fill="rgba(247,241,252,0.850980)"/>
<polygon points="17,75 14,17 99,79" fill="rgba(231,210,14,0.250980)"/>
<polygon points="53,45 46,95 31,94" fill="rgba(177,40,19,0.525490)"/>
<polygon points="121,74 3,32 8,57" fill="rgba(243,131,24,0.756863)"/>
<polygon points="20,38 35,20 74,94" fill="rgba(239,70,9,0.137255)"/>
<polygon points="62,24 82,33 49,61" fill="rgba(26,240,252,0.003922)"/>
<polygon points="78,66 30,40 72,98" fill="rgba(19,111,225,0.003922)"/>
<polygon points="89,75 12,18 32,90" fill="rgba(237,108,25,0.376471)"/>
<polygon points="11,91 120,133 80,98" fill="rgba(249,248,255,0.564706)"/>
<polygon points="29,28 2,55 20,87" fill="rgba(217,67,30,0.886275)"/>
<polygon points="2,22 38,79 112,46" fill="rgba(89,38,163,0.003922)"/>
<polygon points="25,93 57,61 116,111" fill="rgba(43,119,29,0.003922)"/>
<polygon points="27,16 90,99 49,43" fill="rgba(232,43,2,0.600000)"/>
<polygon points="38,34 19,53 66,84" fill="rgba(29,8,6,0.984314)"/>
<polygon points="18,26 51,64 55,12" fill="rgba(54,198,128,0.003922)"/>
<polygon points="14,80 36,14 45,94" fill="rgba(211,43,7,0.705882)"/>
<polygon points="102,76 29,59 38,46" fill="rgba(226,93,35,0.909804)"/>
<polygon points="109,88 44,92 44,99" fill="rgba(65,4,232,0.003922)"/>
<polygon points="100,92 30,61 31,90" fill="rgba(233,14,8,0.345098)"/>
<polygon points="94,55 45,87 25,85" fill="rgba(191,2,8,0.788235)"/>
<polygon points="75,71 69,36 30,50" fill="rgba(20,68,180,0.894118)"/>
<polygon points="73,30 76,125 121,96" fill="rgba(254,247,255,0.988235)"/>
<polygon points="59,15 133,92 30,8" fill="rgba(174,242,253,0.294118)"/>
<polygon points="74,87 79,71 66,10" fill="rgba(114,23,90,0.086275)"/>
<polygon points="99,8 56,7 45,70" fill="rgba(174,55,193,0.003922)"/>
<polygon points="49,62 91,43 68,92" fill="rgba(231,150,10,1.000000)"/>
<polygon points="52,43 75,50 83,35" fill="rgba(2,100,241,0.772549)"/>
<polygon points="78,91 36,42 35,21" fill="rgba(55,86,2,0.227451)"/>
<polygon points="65,60 103,13 24,77" fill="rgba(3,26,122,0.003922)"/>
<polygon points="43,43 45,52 72,63" fill="rgba(7,141,221,0.741176)"/>
<polygon points="92,70 62,91 62,100" fill="rgba(75,5,231,0.047059)"/>
<polygon points="83,38 7,50 40,2" fill="rgba(235,230,171,0.121569)"/>
<polygon points="89,93 36,41 39,5" fill="rgba(130,19,94,0.003922)"/>
<polygon points="54,56 72,34 26,47" fill="rgba(2,42,242,0.909804)"/>
<polygon points="68,14 48,67 100,48" fill="rgba(4,130,70,0.141176)"/>
<polygon points="18,18 96,15 0,56" fill="rgba(90,19,7,0.003922)"/>
<polygon points="17,76 94,23 93,75" fill="rgba(253,146,11,0.200000)"/>
<polygon points="56,15 83,93 61,28" fill="rgba(4,223,22,0.003922)"/>
<polygon points="83,80 88,67 18,94" fill="rgba(76,17,27,0.031373)"/>
<polygon points="66,73 83,50 34,32" fill="rgba(100,180,184,0.862745)"/>
<polygon points="70,87 74,43 73,61" fill="rgba(17,27,29,0.968627)"/>
<polygon points="96,65 63,79 79,88" fill="rgba(1,8,13,0.929412)"/>
<polygon points="69,2 100,33 89,61" fill="rgba(254,208,24,0.282353)"/>
<polygon points="7,15 52,18 57,66" fill="rgba(157,23,40,0.003922)"/>
<polygon points="19,92 6,66 82,108" fill="rgba(8,39,7,0.003922)"/>
<polygon points="49,92 49,60 58,79" fill="rgba(245,115,15,0.074510)"/>
<polygon points="57,124 50,19 7,36" fill="rgba(12,15,0,0.011765)"/>
<polygon points="95,73 38,76 39,64" fill="rgba(125,24,66,0.180392)"/>
<polygon points="81,35 52,66 71,40" fill="rgba(206,193,210,0.003922)"/>
<polygon points="99,5 120,11 22,0" fill="rgba(251,244,251,0.984314)"/>
<polygon points="33,18 42,45 18,36" fill="rgba(210,85,30,0.949020)"/>
<polygon points="83,27 37,41 79,78" fill="rgba(19,135,231,0.094118)"/>
<polygon points="76,47 66,34 97,26" fill="rgba(204,7,139,0.003922)"/>
<polygon points="7,54 20,18 80,49" fill="rgba(248,78,22,0.392157)"/>
<polygon points="49,4 45,85 78,78" fill="rgba(141,252,246,0.145098)"/>
<polygon points="6,29 100,47 59,55" fill="rgba(178,140,173,0.003922)"/>
<polygon points="92,72 38,21 95,74" fill="rgba(32,8,8,0.992157)"/>
<polygon points="66,61 101,59 48,63" fill="rgba(197,240,164,0.913725)"/>
<polygon points="0,62 47,85 32,17" fill="rgba(239,253,3,0.200000)"/>
<polygon points="84,27 55,29 56,86" fill="rgba(1,14,177,0.192157)"/>
<polygon points="42,71 97,36 95,63" fill="rgba(250,114,16,0.521569)"/>
<polygon points="85,74 79,26 4,52" fill="rgba(221,97,109,0.003922)"/>
<polygon points="48,36 43,37 35,58" fill="rgba(32,152,242,0.576471)"/>
<polygon points="58,10 91,87 64,7" fill="rgba(116,169,208,0.376471)"/>
<polygon points="81,31 49,25 67,75" fill="rgba(10,123,41,0.031373)"/>
<polygon points="86,81 18,55 30,16" fill="rgba(9,9,14,0.003922)"/>
<polygon points="85,84 43,69 66,28" fill="rgba(4,27,63,0.819608)"/>
<polygon points="83,25 35,40 69,97" fill="rgba(43,15,153,0.011765)"/>
<polygon points="79,26 106,50 69,42" fill="rgba(210,191,132,0.003922)"/>
<polygon points="39,94 50,50 92,75" fill="rgba(223,18,4,0.603922)"/>
<polygon points="99,27 91,86 63,69" fill="rgba(246,209,34,0.513725)"/>
<polygon points="38,45 78,8 52,58" fill="rgba(95,168,177,0.164706)"/>
<polygon points="45,81 37,33 71,51" fill="rgba(182,218,189,0.211765)"/>
<polygon points="29,2 61,50 74,96" fill="rgba(149,196,202,0.188235)"/>
<polygon points="108,62 137,111 50,77" fill="rgba(232,255,250,0.545098)"/>
<polygon points="71,28 51,2 69,8" fill="rgba(59,121,118,0.427451)"/>
<polygon points="32,24 69,33 98,30" fill="rgba(236,214,123,0.003922)"/>
<polygon points="36,80 71,91 58,46" fill="rgba(237,175,25,0.337255)"/>
<polygon points="9,59 87,52 19,10" fill="rgba(1,28,39,0.003922)"/>
<polygon points="18,17 56,1 94,48" fill="rgba(254,231,242,0.043137)"/>
<polygon points="11,67 1,29 50,33" fill="rgba(100,247,163,0.003922)"/>
<polygon points="117,51 129,64 69,59" fill="rgba(254,239,237,0.129412)"/>
<polygon points="15,66 5,35 34,16" fill="rgba(76,1,158,0.003922)"/>
<polygon points="45,57 94,72 68,96" fill="rgba(99,1,130,0.003922)"/>
<polygon points="108,85 88,109 36,102" fill="rgba(248,249,255,0.905882)"/>
<polygon points="81,52 57,84 36,76" fill="rgba(243,121,250,0.184314)"/>
<polygon points="88,32 16,93 1,23" fill="rgba(69,75,50,0.003922)"/>
<polygon points="24,99 38,12 47,28" fill="rgba(163,18,247,0.003922)"/>
<polygon points="44,94 28,18 19,70" fill="rgba(219,11,142,0.023529)"/>
<polygon points="4,59 69,10 74,23" fill="rgba(101,248,180,0.003922)"/>
<polygon points="56,28 70,61 33,52" fill="rgba(8,108,214,0.345098)"/>
<polygon points="153,56 56,0 102,0" fill="rgba(255,253,255,0.992157)"/>
<polygon points="39,57 59,9 28,24" fill="rgba(14,233,122,0.003922)"/>
<polygon points="89,84 27,88 7,18" fill="rgba(222,111,11,0.211765)"/>
<polygon points="85,56 30,52 32,32" fill="rgba(26,227,255,0.015686)"/>
<polygon points="42,97 12,81 83,86" fill="rgba(153,12,14,0.160784)"/>
<polygon points="93,70 71,91 58,70" fill="rgba(228,120,4,0.800000)"/>
<polygon points="76,44 60,79 57,35" fill="rgba(2,25,83,0.882353)"/>
<polygon points="81,49 64,17 81,25" fill="rgba(1,2,99,0.168627)"/>
<polygon points="58,91 79,72 65,65" fill="rgba(207,47,19,0.192157)"/>
<polygon points="87,64 80,88 97,62" fill="rgba(88,133,32,0.196078)"/>
<polygon points="93,36 70,88 88,79" fill="rgba(245,216,3,0.843137)"/>
<polygon points="39,4 7,46 77,70" fill="rgba(17,15,90,0.003922)"/>
<polygon points="4,23 91,34 11,83" fill="rgba(96,167,61,0.003922)"/>
<polygon points="84,93 38,77 43,53" fill="rgba(219,119,0,0.572549)"/>
<polygon points="48,94 20,88 28,76" fill="rgba(211,1,11,0.470588)"/>
<polygon points="18,61 87,74 32,86" fill="rgba(95,234,149,0.003922)"/>
<polygon points="14,44 20,32 206,43" fill="rgba(131,241,226,0.003922)"/>
<polygon points="56,106 91,56 30,43" fill="rgba(119,0,42,0.003922)"/>
<polygon points="57,2 36,60 67,22" fill="rgba(105,173,195,0.486275)"/>
<polygon points="63,87 16,79 37,97" fill="rgba(86,10,2,0.152941)"/>
<polygon points="51,15 54,78 33,60" fill="rgba(10,73,135,0.074510)"/>
<polygon points="21,86 84,12 75,53" fill="rgba(53,205,36,0.007843)"/>
<polygon points="79,65 23,58 57,77" fill="rgba(50,26,28,0.031373)"/>
<polygon points="6,40 62,61 68,89" fill="rgba(195,9,7,0.027451)"/>
<polygon points="68,132 36,94 67,79" fill="rgba(60,210,21,0.003922)"/>
<polygon points="81,58 49,106 52,70" fill="rgba(248,56,135,0.019608)"/>
<polygon points="57,75 104,43 79,92" fill="rgba(255,229,2,0.074510)"/>
<polygon points="76,71 46,85 18,70" fill="rgba(196,250,149,0.003922)"/>
<polygon points="37,58 54,17 90,33" fill="rgba(34,220,240,0.125490)"/>
<polygon points="114,14 105,44 72,88" fill="rgba(250,247,243,0.278431)"/>
<polygon points="89,34 68,68 37,73" fill="rgba(4,7,41,0.670588)"/>
<polygon points="69,40 122,39 102,150" fill="rgba(201,245,239,0.003922)"/>
<polygon points="42,83 2,52 105,94" fill="rgba(251,254,154,0.003922)"/>
<polygon points="67,23 82,107 126,46" fill="rgba(210,210,145,0.003922)"/>
</svg>